<svg width="3232" height="3232" viewBox="0 0 3232 3232" fill="none" xmlns="http://www.w3.org/2000/svg">
<rect width="3231.07" height="3231.07" fill="#131108"/>
<path d="M1091.5 1046.98C1089.51 1051.64 1089.51 1122.16 1091.5 1203.32L1094.15 1351.68H1182.95H1271.75V1283.16V1213.97L1336.7 1209.98C1422.19 1203.99 2030.54 1204.65 2062.35 1210.64L2087.53 1215.3L2019.94 1288.48C1896.01 1422.2 1811.19 1514.01 1765.46 1564.57C1681.96 1657.04 1567.98 1780.12 1520.93 1828.68C1495.74 1855.29 1475.86 1878.58 1477.85 1879.91C1479.84 1881.91 1532.86 1883.9 1595.81 1883.9L1711.12 1885.23L1732.33 1862.61C1813.84 1778.12 1994.09 1583.2 2070.3 1498.04C2102.11 1462.78 2175.01 1384.94 2229.35 1328.4C2243.93 1313.76 2276.4 1278.5 2301.59 1251.22C2326.77 1224.61 2373.16 1174.72 2404.3 1142.12C2435.45 1108.85 2469.91 1072.26 2480.51 1060.29L2500.4 1039H1797.27C1240.61 1039 1093.49 1041 1091.5 1046.98Z" fill="#F8CA2F"/>
<path d="M1427.15 2192.79C988.346 2193.46 729.685 2192.12 731.005 2188.12L1511.61 1333.9H1632.36C1698.34 1333.9 1752.45 1335.9 1752.45 1338.57L1132.19 2022.08C1132.19 2025.41 1314.97 2027.41 1538 2027.41H1943.81V1947.39V1867.37H2036.19H2128.57L2127.25 2028.75L2125.27 2190.79L1427.15 2192.79Z" fill="#F8CA2F"/>
</svg>
