<svg width="3232" height="3308" viewBox="0 0 3232 3308" fill="none" xmlns="http://www.w3.org/2000/svg">
<path d="M3231.07 1654C3231.07 2567.48 3231.07 3308 1615.53 3308C0 3308 0 2567.48 0 1654C0 740.521 0 0 1615.53 0C3231.07 0 3231.07 740.521 3231.07 1654Z" fill="#131108"/>
<path d="M1091.34 1085.01C1089.35 1089.66 1089.35 1160.18 1091.34 1241.35L1093.99 1389.7H1182.79H1271.59V1321.18V1251.99L1336.54 1248C1422.02 1242.01 2030.38 1242.68 2062.19 1248.66L2087.37 1253.32L2019.78 1326.5C1895.85 1460.22 1811.03 1552.03 1765.3 1602.59C1681.8 1695.07 1567.82 1818.14 1520.77 1866.71C1495.58 1893.32 1475.7 1916.6 1477.69 1917.93C1479.68 1919.93 1532.69 1921.93 1595.65 1921.93L1710.96 1923.26L1732.17 1900.64C1813.68 1816.15 1993.93 1621.22 2070.14 1536.06C2101.95 1500.8 2174.85 1422.97 2229.19 1366.42C2243.77 1351.78 2276.24 1316.52 2301.42 1289.25C2326.61 1262.64 2373 1212.74 2404.14 1180.14C2435.29 1146.88 2469.75 1110.29 2480.35 1098.31L2500.23 1077.02H1797.11C1240.44 1077.02 1093.32 1079.02 1091.34 1085.01Z" fill="#F8CA2F"/>
<path d="M1426.98 2230.81C988.184 2231.48 729.523 2230.15 730.843 2226.15L1511.44 1371.92H1632.2C1698.18 1371.92 1752.29 1373.92 1752.29 1376.59L1132.03 2060.1C1132.03 2063.44 1314.81 2065.44 1537.84 2065.44H1943.65V1985.42V1905.39H2036.03H2128.4L2127.08 2066.77L2125.1 2228.81L1426.98 2230.81Z" fill="#F8CA2F"/>
</svg>
